{"title":"The Protector [Tom Yum Goong] (2005) UNCUT BRRip XviD - DiGrX","uid":8828372,"size":1772146765,"categoryP":"video","categoryS":"movies","magnet":"?xt=urn:btih:18c3b62743827bfa6d5c956be72f1b902579158f&amp;dn=The+Protector+%5BTom+Yum+Goong%5D+%282005%29+UNCUT+BRRip+XviD+-+DiGrX&amp;tr=udp%3A%2F%2Ftracker.openbittorrent.com%3A80&amp;tr=udp%3A%2F%2Fopen.demonii.com%3A1337&amp;tr=udp%3A%2F%2Ftracker.coppersurfer.tk%3A6969&amp;tr=udp%3A%2F%2Fexodus.desync.com%3A6969","seeders":8,"leechers":1,"uploader":"dimigeor","files":5,"time":1376904226,"description":"The Protector [Tom Yum Goong] (2005) UNCUT BRRip XviD - DiGrX\n\nGeneral\nFormat                                   : AVI\nFormat/Info                              : Audio Video Interleave\nFormat profile                           : OpenDML\nFile size                                : 1.65 GiB\nDuration                                 : 1h 50mn\nOverall bit rate mode                    : Variable\nOverall bit rate                         : 2 137 Kbps\nWriting application                      : MEncoder r33883\nWriting library                          : MPlayer\n\nVideo\nID                                       : 0\nFormat                                   : MPEG-4 Visual\nFormat profile                           : Simple@L3\nFormat settings, BVOP                    : No\nFormat settings, QPel                    : No\nFormat settings, GMC                     : No warppoints\nFormat settings, Matrix                  : Default (H.263)\nCodec ID                                 : XVID\nCodec ID/Hint                            : XviD\nDuration                                 : 1h 50mn\nBit rate                                 : 2 000 Kbps\nWidth                                    : 848 pixels\nHeight                                   : 480 pixels\nDisplay aspect ratio                     : 16:9\nFrame rate                               : 23.976 fps\nColor space                              : YUV\nChroma subsampling                       : 4:2:0\nBit depth                                : 8 bits\nScan type                                : Progressive\nCompression mode                         : Lossy\nBits/(Pixel*Frame)                       : 0.205\nStream size                              : 1.54 GiB (94%)\nWriting library                          : XviD 63\n\nAudio\nID                                       : 1\nFormat                                   : MPEG Audio\nFormat version                           : Version 1\nFormat profile                           : Layer 3\nMode                                     : Joint stereo\nMode extension                           : MS Stereo\nCodec ID                                 : 55\nCodec ID/Hint                            : MP3\nDuration                                 : 1h 50mn\nBit rate mode                            : Variable\nBit rate                                 : 124 Kbps\nChannel(s)                               : 2 channels\nSampling rate                            : 48.0 KHz\nCompression mode                         : Lossy\nStream size                              : 97.7 MiB (6%)\nAlignment                                : Aligned on interleaves\nInterleave, duration                     : 24 ms (0.58 video frame)\nInterleave, preload duration             : 130 ms\nWriting library                          : LAME3.98.4\n","torrent":{"xt":"urn:btih:18c3b62743827bfa6d5c956be72f1b902579158f","amp;dn":"The+Protector+%5BTom+Yum+Goong%5D+%282005%29+UNCUT+BRRip+XviD+-+DiGrX","amp;tr":["udp%3A%2F%2Ftracker.openbittorrent.com%3A80","udp%3A%2F%2Fopen.demonii.com%3A1337","udp%3A%2F%2Ftracker.coppersurfer.tk%3A6969","udp%3A%2F%2Fexodus.desync.com%3A6969"],"infoHash":"18c3b62743827bfa6d5c956be72f1b902579158f","infoHashBuffer":{"type":"Buffer","data":[24,195,182,39,67,130,123,250,109,92,149,107,231,47,27,144,37,121,21,143]},"announce":[],"urlList":[]}}